<svg xmlns="http://www.w3.org/2000/svg" xmlns:xlink="http://www.w3.org/1999/xlink" viewBox="0 0 36 36" width="36" height="36">
  <defs>
    <path d="M0 36V0h36v36H0zM20.84 8.84l-.42.14-.41.19-.39.21-.36.24-.35.28-.32.3-.3.32-.26.35-.24.37-.21.39-.17.41-.14.42-.12.03-.11.02-.12.03-.12.03-.11.04-.12.03-.11.04-.12.05-.11.05-.12.05-.11.05-.11.06-.11.06-.11.07-.16-.1-.16-.08-.16-.08-.16-.07-.17-.07-.16-.06-.17-.05-.17-.05-.17-.04-.17-.03-.17-.02-.17-.02-.18-.01h-.17l-.65.05-.63.14-.61.24-.57.33-.54.4-.5.48-.46.55-.41.61-.36.67-.3.72-.25.76-.18.81-.11.84-.03.87.03.87.11.85.18.8.25.77.3.72.36.67.41.61.46.55.5.48.54.4.57.32.61.24.63.15.65.05h.17l.18-.01.17-.02.17-.02.17-.04.17-.03.17-.05.17-.05.16-.06.17-.07.16-.07.16-.08.16-.08.16-.1.32.18.32.16.33.12.34.1.34.07.34.04.34.01.34-.01.34-.04.34-.07.33-.1.34-.12.32-.16.32-.18.16.1.16.08.16.08.16.07.17.07.16.06.17.05.17.05.17.03.17.04.17.02.17.02.18.01h.17l.65-.05.63-.15.61-.24.57-.32.54-.4.5-.48.46-.55.41-.61.36-.67.3-.72.25-.77.18-.8.11-.85.03-.87-.03-.87-.11-.84-.18-.8-.25-.77-.3-.72-.36-.67-.41-.61-.46-.54-.5-.48-.54-.41-.57-.32-.6-.24-.64-.15-.65-.05-.17.01-.17.01-.18.02-.17.02-.17.03-.17.04-.17.04-.17.05-.16.06-.17.07-.16.07-.16.08-.16.08-.16.1-.08-.05-.08-.05-.08-.04-.08-.04-.08-.04-.08-.04-.09-.04-.08-.03-.08-.04-.08-.03-.09-.03-.08-.03-.09-.02-.08-.03.1-.22.11-.22.13-.2.15-.2.16-.18.17-.17.18-.16.19-.15.21-.13.21-.11.23-.1.23-.08.24-.07.25-.04V8.66l-.46.07-.44.11zm-1.52 14.21l-.59.4-.73.15-.73-.15-.59-.4-.4-.59-.15-.73h3.74l-.15.73-.4.59zm3.87-4.65l.3.45.11.55-.11.54-.3.45-.44.3-.55.11-.54-.11-.45-.3-.3-.45-.11-.54.11-.55.3-.45.45-.3.54-.11.55.11.44.3zm-8.4 0l.3.45.11.55-.11.54-.3.45-.45.3-.54.11-.55-.11-.44-.3-.3-.45-.11-.54.11-.55.3-.45.44-.3.55-.11.54.11.45.3z" id="a"/>
  </defs>
  <use xlink:href="#a" fill="#fff"/>
</svg>
